<svg xmlns="http://www.w3.org/2000/svg" viewBox="0 0 64 64"><g id="_07-Time" data-name="07-Time"><rect x="1" y="51" width="58" height="4" style="fill:#d6e0eb"/><polygon points="1 55 1 51 59 51 59 53 6 53 6 54 59 54 59 55 1 55" style="fill:#8394b2"/><rect x="1" y="15" width="58" height="36" style="fill:#fbfbfb"/><path d="M1,15V51H59V45H34C19.088,45,7,33.912,7,19V15Z" style="fill:#edf4fa"/><path d="M1,4V15H59V4Zm12,7H5V7h8Zm14,0H19V7h8Zm14,0H33V7h8Zm14,0H47V7h8Z" style="fill:#e63b47"/><path d="M8,1h2a1,1,0,0,1,1,1V8a0,0,0,0,1,0,0H7A0,0,0,0,1,7,8V2A1,1,0,0,1,8,1Z" style="fill:#d6e0eb"/><path d="M10,6H9A1,1,0,0,1,8,5V2A1,1,0,0,1,9,1H8A1,1,0,0,0,7,2V8h4V5A1,1,0,0,1,10,6Z" style="fill:#a8b7d4"/><path d="M22,1h2a1,1,0,0,1,1,1V8a0,0,0,0,1,0,0H21a0,0,0,0,1,0,0V2A1,1,0,0,1,22,1Z" style="fill:#d6e0eb"/><path d="M24,6H23a1,1,0,0,1-1-1V2a1,1,0,0,1,1-1H22a1,1,0,0,0-1,1V8h4V5A1,1,0,0,1,24,6Z" style="fill:#a8b7d4"/><path d="M36,1h2a1,1,0,0,1,1,1V8a0,0,0,0,1,0,0H35a0,0,0,0,1,0,0V2A1,1,0,0,1,36,1Z" style="fill:#d6e0eb"/><path d="M38,6H37a1,1,0,0,1-1-1V2a1,1,0,0,1,1-1H36a1,1,0,0,0-1,1V8h4V5A1,1,0,0,1,38,6Z" style="fill:#a8b7d4"/><path d="M50,1h2a1,1,0,0,1,1,1V8a0,0,0,0,1,0,0H49a0,0,0,0,1,0,0V2A1,1,0,0,1,50,1Z" style="fill:#d6e0eb"/><path d="M52,6H51a1,1,0,0,1-1-1V2a1,1,0,0,1,1-1H50a1,1,0,0,0-1,1V8h4V5A1,1,0,0,1,52,6Z" style="fill:#a8b7d4"/><rect x="9" y="19" width="6" height="6" style="fill:#a8b7d4"/><rect x="21" y="19" width="6" height="6" style="fill:#a8b7d4"/><rect x="33" y="19" width="6" height="6" style="fill:#a8b7d4"/><rect x="45" y="19" width="6" height="6" style="fill:#a8b7d4"/><rect x="9" y="30" width="6" height="6" style="fill:#a8b7d4"/><rect x="21" y="30" width="6" height="6" style="fill:#a8b7d4"/><rect x="33" y="30" width="6" height="6" style="fill:#a8b7d4"/><rect x="21" y="41" width="6" height="6" style="fill:#a8b7d4"/><rect x="9" y="40" width="6" height="6" style="fill:#8394b2"/><rect x="45" y="30" width="6" height="6" style="fill:#a8b7d4"/><path d="M9,36h4.377a25.157,25.157,0,0,1-3.954-6H9Z" style="fill:#8394b2"/><path d="M27,47V44.149A27.6,27.6,0,0,1,21,41.9V47Z" style="fill:#8394b2"/><rect x="9" y="40" width="6" height="6" style="fill:#8394b2"/><path d="M39,47V45H34c-.335,0-.668-.012-1-.023V47Z" style="fill:#8394b2"/><circle cx="48" cy="48" r="15" style="fill:#fbfbfb"/><path d="M39,40a15,15,0,0,1,.681-4.48A15,15,0,1,0,62.319,52.48,15,15,0,0,1,39,40Z" style="fill:#d6e0eb"/><path d="M48,33A15,15,0,1,0,63,48,15,15,0,0,0,48,33Zm0,27A12,12,0,1,1,60,48,12,12,0,0,1,48,60Z" style="fill:#02b9f2"/><path d="M59.526,56.5a1.483,1.483,0,0,1-.778-.219,1.5,1.5,0,0,1-.5-2.061,11.906,11.906,0,0,0,0-12.44,1.5,1.5,0,0,1,2.563-1.56,14.908,14.908,0,0,1,0,15.56A1.5,1.5,0,0,1,59.526,56.5Z" style="fill:#469ce6"/><path d="M36.474,56.5a1.5,1.5,0,0,1-1.283-.72,14.908,14.908,0,0,1,0-15.56,1.5,1.5,0,0,1,2.563,1.56,11.906,11.906,0,0,0,0,12.44,1.5,1.5,0,0,1-.5,2.061A1.483,1.483,0,0,1,36.474,56.5Z" style="fill:#469ce6"/><path d="M2,44H0V55a1,1,0,0,0,1,1H31V54H2V52H31V50H2Z"/><rect x="58" y="32" width="2" height="2"/><path d="M2,16H58V30h2V4a1,1,0,0,0-1-1H56V5h2v9H2V5H4V3H1A1,1,0,0,0,0,4V42H2Z"/><path d="M4,11a1,1,0,0,0,1,1h8a1,1,0,0,0,1-1V7a1,1,0,0,0-1-1H12V5h8V6H19a1,1,0,0,0-1,1v4a1,1,0,0,0,1,1h8a1,1,0,0,0,1-1V7a1,1,0,0,0-1-1H26V5h8V6H33a1,1,0,0,0-1,1v4a1,1,0,0,0,1,1h8a1,1,0,0,0,1-1V7a1,1,0,0,0-1-1H40V5h8V6H47a1,1,0,0,0-1,1v4a1,1,0,0,0,1,1h8a1,1,0,0,0,1-1V7a1,1,0,0,0-1-1H54V2a2,2,0,0,0-2-2H50a2,2,0,0,0-2,2V3H40V2a2,2,0,0,0-2-2H36a2,2,0,0,0-2,2V3H26V2a2,2,0,0,0-2-2H22a2,2,0,0,0-2,2V3H12V2a2,2,0,0,0-2-2H8A2,2,0,0,0,6,2V6H5A1,1,0,0,0,4,7ZM53,9a1,1,0,0,0,1-1v2H48V8a1,1,0,0,0,1,1ZM50,2h2V7H50ZM39,9a1,1,0,0,0,1-1v2H34V8a1,1,0,0,0,1,1ZM36,2h2V7H36ZM25,9a1,1,0,0,0,1-1v2H20V8a1,1,0,0,0,1,1ZM22,2h2V7H22ZM8,2h2V7H8ZM6,8A1,1,0,0,0,7,9h4a1,1,0,0,0,1-1v2H6Z"/><path d="M10.917,44.5l-1.21-1.21L8.293,44.707l2,2A1,1,0,0,0,11,47h.055a1,1,0,0,0,.726-.374l4-5-1.562-1.25Z"/><path d="M48,32A16,16,0,1,0,64,48,16.019,16.019,0,0,0,48,32Zm0,30A14,14,0,1,1,62,48,14.015,14.015,0,0,1,48,62Z"/><path d="M16,19a1,1,0,0,0-1-1H9a1,1,0,0,0-1,1v6a1,1,0,0,0,1,1h6a1,1,0,0,0,1-1Zm-2,5H10V20h4Z"/><path d="M28,19a1,1,0,0,0-1-1H21a1,1,0,0,0-1,1v6a1,1,0,0,0,1,1h6a1,1,0,0,0,1-1Zm-2,5H22V20h4Z"/><path d="M40,19a1,1,0,0,0-1-1H33a1,1,0,0,0-1,1v6a1,1,0,0,0,1,1h6a1,1,0,0,0,1-1Zm-2,5H34V20h4Z"/><path d="M45,18a1,1,0,0,0-1,1v6a1,1,0,0,0,1,1h6a1,1,0,0,0,1-1V19a1,1,0,0,0-1-1Zm5,6H46V20h4Z"/><path d="M16,30a1,1,0,0,0-1-1H9a1,1,0,0,0-1,1v6a1,1,0,0,0,1,1h6a1,1,0,0,0,1-1Zm-2,5H10V31h4Z"/><path d="M28,30a1,1,0,0,0-1-1H21a1,1,0,0,0-1,1v6a1,1,0,0,0,1,1h6a1,1,0,0,0,1-1Zm-2,5H22V31h4Z"/><path d="M40,33V30a1,1,0,0,0-1-1H33a1,1,0,0,0-1,1v6a1,1,0,0,0,1,1h2V35H34V31h4v2Z"/><path d="M27,40H21a1,1,0,0,0-1,1v6a1,1,0,0,0,1,1h6a1,1,0,0,0,1-1V41A1,1,0,0,0,27,40Zm-1,6H22V42h4Z"/><path d="M48.181,46.886,40.6,41.2l-1.2,1.6,8,6a1,1,0,0,0,.6.2,1.01,1.01,0,0,0,.316-.051l6-2-.632-1.9Z"/></g></svg>